<?xml version="1.0" encoding="UTF-8"?>
<svg width="1200pt" height="1200pt" version="1.1" viewBox="0 0 1200 1200" xmlns="http://www.w3.org/2000/svg">
 <path d="m624 481.46c0 13.254-10.746 24-24 24s-24-10.746-24-24 10.746-24 24-24 24 10.746 24 24z"/>
 <path d="m624 644.98c0 13.254-10.746 24-24 24s-24-10.746-24-24c0-13.254 10.746-24 24-24s24 10.746 24 24z"/>
 <path d="m780 215.36v-155.36l-180 47.543-180-47.543v155.36l180-47.543z"/>
 <path d="m624 808.5c0 13.254-10.746 24-24 24s-24-10.746-24-24 10.746-24 24-24 24 10.746 24 24z"/>
 <path d="m816 165.05v562.45c0 119.29-96.707 216-216 216s-216-96.707-216-216v-562.45l-276 74.316v900h984v-900zm-570.07 474.72c-42.266 0-76.535-34.262-76.535-76.535 0-42.277 34.273-76.535 76.535-76.535 42.277 0 76.535 34.262 76.535 76.535 0.011718 42.273-34.25 76.535-76.535 76.535z"/>
 <path d="m624 317.94c0 13.254-10.746 24-24 24s-24-10.746-24-24c0-13.258 10.746-24 24-24s24 10.742 24 24z"/>
</svg>
